<svg width="32" height="32" viewBox="0 0 32 32" fill="none" xmlns="http://www.w3.org/2000/svg">
<g filter="url(#filter0_b_4_217)">
<circle cx="16" cy="16" r="16" fill="#061B2E" fill-opacity="0.9"/>
</g>
<g clip-path="url(#clip0_4_217)">
<path d="M11.654 9.32805C11.5949 9.25211 11.5204 9.1896 11.4354 9.14468C11.3503 9.09975 11.2567 9.07343 11.1607 9.06747C11.0647 9.06151 10.9685 9.07605 10.8786 9.11012C10.7886 9.14418 10.707 9.19699 10.639 9.26505L9.60498 10.3001C9.12198 10.7841 8.94398 11.4691 9.15498 12.0701C10.0307 14.5576 11.4553 16.8161 13.323 18.6781C15.1849 20.5457 17.4434 21.9703 19.931 22.8461C20.532 23.0571 21.217 22.8791 21.701 22.3961L22.735 21.3621C22.803 21.2941 22.8559 21.2124 22.8899 21.1225C22.924 21.0325 22.9385 20.9363 22.9326 20.8403C22.9266 20.7443 22.9003 20.6507 22.8554 20.5656C22.8104 20.4806 22.7479 20.4061 22.672 20.3471L20.365 18.5531C20.2839 18.4901 20.1895 18.4465 20.089 18.4253C19.9885 18.4042 19.8846 18.4061 19.785 18.4311L17.595 18.9781C17.3027 19.0511 16.9964 19.0472 16.706 18.9668C16.4156 18.8864 16.151 18.7321 15.938 18.5191L13.482 16.0621C13.2688 15.8491 13.1143 15.5845 13.0337 15.2941C12.9531 15.0038 12.949 14.6975 13.022 14.4051L13.57 12.2151C13.5949 12.1154 13.5969 12.0115 13.5757 11.911C13.5546 11.8105 13.5109 11.7162 13.448 11.6351L11.654 9.32805ZM9.88398 8.51105C10.059 8.336 10.2692 8.20018 10.5007 8.11261C10.7322 8.02504 10.9797 7.98773 11.2268 8.00314C11.4738 8.01856 11.7147 8.08636 11.9336 8.20203C12.1524 8.3177 12.3441 8.4786 12.496 8.67405L14.29 10.9801C14.619 11.4031 14.735 11.9541 14.605 12.4741L14.058 14.6641C14.0297 14.7775 14.0312 14.8963 14.0624 15.009C14.0936 15.1216 14.1534 15.2243 14.236 15.3071L16.693 17.7641C16.7758 17.8468 16.8787 17.9067 16.9915 17.9379C17.1044 17.9691 17.2234 17.9705 17.337 17.9421L19.526 17.3951C19.7826 17.3309 20.0504 17.3259 20.3093 17.3805C20.5681 17.435 20.8111 17.5477 21.02 17.7101L23.326 19.5041C24.155 20.149 24.231 21.3741 23.489 22.1151L22.455 23.1491C21.715 23.8891 20.609 24.2141 19.578 23.8511C16.9392 22.9226 14.5433 21.4119 12.568 19.4311C10.5873 17.4561 9.07659 15.0605 8.14798 12.4221C7.78598 11.3921 8.11098 10.2851 8.85098 9.54505L9.88498 8.51105H9.88398Z" fill="white"/>
</g>
<defs>
<filter id="filter0_b_4_217" x="-2" y="-2" width="36" height="36" filterUnits="userSpaceOnUse" color-interpolation-filters="sRGB">
<feFlood flood-opacity="0" result="BackgroundImageFix"/>
<feGaussianBlur in="BackgroundImageFix" stdDeviation="1"/>
<feComposite in2="SourceAlpha" operator="in" result="effect1_backgroundBlur_4_217"/>
<feBlend mode="normal" in="SourceGraphic" in2="effect1_backgroundBlur_4_217" result="shape"/>
</filter>
<clipPath id="clip0_4_217">
<rect width="16" height="16" fill="white" transform="translate(8 8)"/>
</clipPath>
</defs>
</svg>
