<svg width="32" height="32" viewBox="0 0 32 32" fill="none" xmlns="http://www.w3.org/2000/svg">
<g filter="url(#filter0_b_4_190)">
<circle cx="16" cy="16" r="16" fill="#061B2E" fill-opacity="0.9"/>
</g>
<path d="M16 19.3334L16.6667 18V14.572C17.814 14.274 18.6667 13.2387 18.6667 12C18.6667 10.5294 17.4707 9.33337 16 9.33337C14.5294 9.33337 13.3334 10.5294 13.3334 12C13.3334 13.2387 14.186 14.274 15.3334 14.572V18L16 19.3334Z" fill="white"/>
<path d="M18.8447 15.042L18.4894 16.3274C20.2167 16.8047 21.3334 17.7227 21.3334 18.6667C21.3334 19.928 19.1434 21.3334 16 21.3334C12.8567 21.3334 10.6667 19.928 10.6667 18.6667C10.6667 17.7227 11.7834 16.8047 13.5114 16.3267L13.156 15.0414C10.798 15.6934 9.33337 17.082 9.33337 18.6667C9.33337 20.9094 12.262 22.6667 16 22.6667C19.738 22.6667 22.6667 20.9094 22.6667 18.6667C22.6667 17.082 21.202 15.6934 18.8447 15.042Z" fill="white"/>
<defs>
<filter id="filter0_b_4_190" x="-2" y="-2" width="36" height="36" filterUnits="userSpaceOnUse" color-interpolation-filters="sRGB">
<feFlood flood-opacity="0" result="BackgroundImageFix"/>
<feGaussianBlur in="BackgroundImageFix" stdDeviation="1"/>
<feComposite in2="SourceAlpha" operator="in" result="effect1_backgroundBlur_4_190"/>
<feBlend mode="normal" in="SourceGraphic" in2="effect1_backgroundBlur_4_190" result="shape"/>
</filter>
</defs>
</svg>
