<svg width="32" height="32" viewBox="0 0 32 32" fill="none" xmlns="http://www.w3.org/2000/svg">
<g filter="url(#filter0_b_10_46)">
<circle cx="16" cy="16.0002" r="16" fill="#061B2E" fill-opacity="0.9"/>
</g>
<g clip-path="url(#clip0_10_46)">
<path fill-rule="evenodd" clip-rule="evenodd" d="M12.9766 8.71087C13.7586 8.67487 14.008 8.66687 16 8.66687C17.992 8.66687 18.2413 8.67554 19.0226 8.71087C19.804 8.7462 20.3373 8.87087 20.804 9.05154C21.2926 9.2362 21.736 9.52487 22.1026 9.8982C22.476 10.2642 22.764 10.7069 22.948 11.1962C23.1293 11.6629 23.2533 12.1962 23.2893 12.9762C23.3253 13.7595 23.3333 14.0089 23.3333 16.0002C23.3333 17.9922 23.3246 18.2415 23.2893 19.0235C23.254 19.8035 23.1293 20.3369 22.948 20.8035C22.764 21.2929 22.4755 21.7363 22.1026 22.1029C21.736 22.4762 21.2926 22.7642 20.804 22.9482C20.3373 23.1295 19.804 23.2535 19.024 23.2895C18.2413 23.3255 17.992 23.3335 16 23.3335C14.008 23.3335 13.7586 23.3249 12.9766 23.2895C12.1966 23.2542 11.6633 23.1295 11.1966 22.9482C10.7072 22.7642 10.2638 22.4757 9.89729 22.1029C9.52421 21.7366 9.2355 21.2935 9.05129 20.8042C8.87063 20.3375 8.74663 19.8042 8.71063 19.0242C8.67463 18.2409 8.66663 17.9915 8.66663 16.0002C8.66663 14.0082 8.67529 13.7589 8.71063 12.9775C8.74596 12.1962 8.87063 11.6629 9.05129 11.1962C9.23577 10.7069 9.52471 10.2637 9.89796 9.89754C10.264 9.52454 10.7069 9.23583 11.196 9.05154C11.6626 8.87087 12.196 8.74687 12.976 8.71087H12.9766ZM18.9633 10.0309C18.19 9.99554 17.958 9.9882 16 9.9882C14.042 9.9882 13.81 9.99554 13.0366 10.0309C12.3213 10.0635 11.9333 10.1829 11.6746 10.2835C11.3326 10.4169 11.088 10.5749 10.8313 10.8315C10.588 11.0682 10.4007 11.3564 10.2833 11.6749C10.1826 11.9335 10.0633 12.3215 10.0306 13.0369C9.99529 13.8102 9.98796 14.0422 9.98796 16.0002C9.98796 17.9582 9.99529 18.1902 10.0306 18.9635C10.0633 19.6789 10.1826 20.0669 10.2833 20.3255C10.4006 20.6435 10.588 20.9322 10.8313 21.1689C11.068 21.4122 11.3566 21.5995 11.6746 21.7169C11.9333 21.8175 12.3213 21.9369 13.0366 21.9695C13.81 22.0049 14.0413 22.0122 16 22.0122C17.9586 22.0122 18.19 22.0049 18.9633 21.9695C19.6786 21.9369 20.0666 21.8175 20.3253 21.7169C20.6673 21.5835 20.912 21.4255 21.1686 21.1689C21.412 20.9322 21.5993 20.6435 21.7166 20.3255C21.8173 20.0669 21.9366 19.6789 21.9693 18.9635C22.0046 18.1902 22.012 17.9582 22.012 16.0002C22.012 14.0422 22.0046 13.8102 21.9693 13.0369C21.9366 12.3215 21.8173 11.9335 21.7166 11.6749C21.5833 11.3329 21.4253 11.0882 21.1686 10.8315C20.9319 10.5883 20.6438 10.401 20.3253 10.2835C20.0666 10.1829 19.6786 10.0635 18.9633 10.0309V10.0309ZM15.0633 18.2609C15.5864 18.4786 16.1689 18.508 16.7112 18.344C17.2536 18.18 17.7222 17.8328 18.037 17.3617C18.3518 16.8906 18.4933 16.3248 18.4373 15.7609C18.3813 15.1971 18.1313 14.6702 17.73 14.2702C17.4741 14.0145 17.1648 13.8187 16.8242 13.697C16.4836 13.5752 16.1202 13.5304 15.7603 13.5659C15.4003 13.6015 15.0527 13.7163 14.7425 13.9023C14.4323 14.0883 14.1671 14.3407 13.9662 14.6414C13.7652 14.9422 13.6334 15.2837 13.5803 15.6415C13.5272 15.9993 13.5541 16.3644 13.659 16.7105C13.7639 17.0567 13.9443 17.3753 14.1871 17.6434C14.4299 17.9114 14.7292 18.1223 15.0633 18.2609ZM13.3346 13.3349C13.6846 12.9849 14.1002 12.7072 14.5575 12.5178C15.0148 12.3283 15.505 12.2309 16 12.2309C16.495 12.2309 16.9851 12.3283 17.4424 12.5178C17.8997 12.7072 18.3153 12.9849 18.6653 13.3349C19.0153 13.6849 19.293 14.1004 19.4824 14.5577C19.6718 15.0151 19.7693 15.5052 19.7693 16.0002C19.7693 16.4952 19.6718 16.9854 19.4824 17.4427C19.293 17.9 19.0153 18.3155 18.6653 18.6655C17.9584 19.3724 16.9997 19.7696 16 19.7696C15.0003 19.7696 14.0415 19.3724 13.3346 18.6655C12.6277 17.9586 12.2306 16.9999 12.2306 16.0002C12.2306 15.0005 12.6277 14.0418 13.3346 13.3349V13.3349ZM20.6053 12.7922C20.692 12.7104 20.7615 12.612 20.8095 12.5029C20.8575 12.3937 20.8832 12.276 20.8849 12.1568C20.8866 12.0376 20.8644 11.9192 20.8196 11.8087C20.7748 11.6983 20.7082 11.5979 20.6239 11.5136C20.5396 11.4292 20.4392 11.3627 20.3288 11.3179C20.2183 11.2731 20.0999 11.2509 19.9807 11.2526C19.8614 11.2543 19.7438 11.28 19.6346 11.328C19.5255 11.376 19.4271 11.4455 19.3453 11.5322C19.1862 11.7009 19.099 11.925 19.1024 12.1568C19.1058 12.3887 19.1994 12.6101 19.3634 12.7741C19.5274 12.9381 19.7488 13.0317 19.9807 13.0351C20.2125 13.0384 20.4366 12.9513 20.6053 12.7922V12.7922Z" fill="white"/>
</g>
<defs>
<filter id="filter0_b_10_46" x="-2" y="-1.99976" width="36" height="36" filterUnits="userSpaceOnUse" color-interpolation-filters="sRGB">
<feFlood flood-opacity="0" result="BackgroundImageFix"/>
<feGaussianBlur in="BackgroundImageFix" stdDeviation="1"/>
<feComposite in2="SourceAlpha" operator="in" result="effect1_backgroundBlur_10_46"/>
<feBlend mode="normal" in="SourceGraphic" in2="effect1_backgroundBlur_10_46" result="shape"/>
</filter>
<clipPath id="clip0_10_46">
<rect width="16" height="16" fill="white" transform="translate(8 8.00024)"/>
</clipPath>
</defs>
</svg>
