<svg width="32" height="32" viewBox="0 0 32 32" fill="none" xmlns="http://www.w3.org/2000/svg">
<g filter="url(#filter0_b_4_161)">
<circle cx="16" cy="16" r="16" fill="#061B2E" fill-opacity="0.9"/>
</g>
<g clip-path="url(#clip0_4_161)">
<path d="M21.601 10.326C20.8675 9.58573 19.9939 8.99879 19.0313 8.59945C18.0687 8.20012 17.0362 7.99636 15.994 8.00005C11.627 8.00005 8.068 11.558 8.064 15.926C8.064 17.325 8.43 18.686 9.121 19.891L8 24L12.204 22.898C13.367 23.531 14.6699 23.8627 15.994 23.863H15.998C20.366 23.863 23.924 20.305 23.928 15.933C23.929 14.8911 23.7238 13.8592 23.3243 12.8969C22.9247 11.9346 22.3387 11.0609 21.6 10.326H21.601ZM15.994 22.521C14.813 22.5214 13.6537 22.2036 12.638 21.601L12.398 21.457L9.904 22.111L10.57 19.6781L10.414 19.427C9.75381 18.3774 9.40465 17.1621 9.407 15.922C9.407 12.296 12.364 9.33805 15.998 9.33805C16.8637 9.3365 17.7212 9.50632 18.521 9.83774C19.3208 10.1692 20.0471 10.6556 20.658 11.269C21.271 11.8801 21.757 12.6065 22.0879 13.4063C22.4188 14.2061 22.5881 15.0635 22.586 15.929C22.582 19.568 19.625 22.521 15.994 22.521ZM19.609 17.587C19.412 17.488 18.439 17.009 18.256 16.941C18.074 16.876 17.941 16.842 17.811 17.04C17.678 17.237 17.298 17.686 17.184 17.815C17.07 17.948 16.952 17.963 16.754 17.865C16.557 17.765 15.918 17.557 15.162 16.88C14.572 16.3551 14.177 15.705 14.059 15.508C13.945 15.31 14.048 15.204 14.147 15.105C14.234 15.017 14.344 14.873 14.443 14.759C14.543 14.645 14.576 14.561 14.641 14.429C14.706 14.295 14.675 14.181 14.626 14.082C14.576 13.983 14.181 13.006 14.014 12.612C13.854 12.223 13.691 12.277 13.569 12.272C13.455 12.265 13.322 12.265 13.189 12.265C13.0886 12.2675 12.9897 12.2908 12.8987 12.3333C12.8077 12.3758 12.7264 12.4366 12.66 12.512C12.478 12.71 11.969 13.189 11.969 14.166C11.969 15.143 12.679 16.082 12.779 16.215C12.877 16.3481 14.173 18.347 16.162 19.207C16.632 19.412 17.002 19.533 17.291 19.625C17.766 19.7771 18.195 19.754 18.537 19.705C18.917 19.647 19.708 19.225 19.875 18.762C20.039 18.298 20.039 17.9021 19.989 17.819C19.94 17.7351 19.807 17.686 19.609 17.587Z" fill="white"/>
</g>
<defs>
<filter id="filter0_b_4_161" x="-2" y="-2" width="36" height="36" filterUnits="userSpaceOnUse" color-interpolation-filters="sRGB">
<feFlood flood-opacity="0" result="BackgroundImageFix"/>
<feGaussianBlur in="BackgroundImageFix" stdDeviation="1"/>
<feComposite in2="SourceAlpha" operator="in" result="effect1_backgroundBlur_4_161"/>
<feBlend mode="normal" in="SourceGraphic" in2="effect1_backgroundBlur_4_161" result="shape"/>
</filter>
<clipPath id="clip0_4_161">
<rect width="16" height="16" fill="white" transform="translate(8 8)"/>
</clipPath>
</defs>
</svg>
